<?xml version="1.0" encoding="iso-8859-1"?>
<!-- Generator: Adobe Illustrator 19.0.0, SVG Export Plug-In . SVG Version: 6.00 Build 0)  -->
<svg version="1.1" id="Layer_1" xmlns="http://www.w3.org/2000/svg" xmlns:xlink="http://www.w3.org/1999/xlink" x="0px" y="0px"
	 viewBox="0 0 502 502" style="enable-background:new 0 0 502 502;" xml:space="preserve">
<g>
	<g>
		<path style="fill:#EBD2B4;" d="M251,421.896c25.802,0.023,51.612-9.808,71.298-29.495l0,0c1.196-1.196,2.355-2.416,3.478-3.656
			l-3.657,3.656C302.479,412.043,276.743,421.874,251,421.896z"/>
		<path style="fill:#FF2E3D;" d="M176.223,388.745c1.124,1.24,2.282,2.46,3.478,3.656l0,0
			c19.687,19.686,45.496,29.517,71.298,29.495c-25.743-0.023-51.479-9.853-71.12-29.495L176.223,388.745z"/>
		<path style="fill:#EBD2B4;" d="M179.702,249.983L251,178.685l-69.086-69.086c-39.328-39.328-103.09-39.328-142.418,0l0,0
			c-39.328,39.328-39.328,103.091,0,142.418l136.727,136.728C140.412,349.216,141.57,288.115,179.702,249.983z"/>
		<path style="fill:#FF2E3D;" d="M462.504,109.599L462.504,109.599c-39.328-39.328-103.091-39.328-142.418,0L251,178.685
			l-71.298,71.298c-38.131,38.131-39.29,99.233-3.479,138.762l3.657,3.656c19.641,19.641,45.377,29.472,71.12,29.495
			c25.743-0.023,51.479-9.853,71.12-29.495l140.384-140.384C501.832,212.69,501.832,148.927,462.504,109.599z"/>
	</g>
	<g>
		<path d="M502,180.809c0-29.57-11.516-57.371-32.425-78.28s-48.71-32.425-78.28-32.425s-57.371,11.516-78.28,32.425L251,164.543
			l-62.015-62.015c-20.909-20.909-48.71-32.425-78.28-32.425s-57.371,11.516-78.28,32.425S0,151.238,0,180.809
			s11.516,57.371,32.425,78.28l136.613,136.613c1.18,1.296,2.387,2.566,3.594,3.771c20.912,20.911,48.707,32.424,78.278,32.424
			c0.027,0,0.055,0,0.082,0c0.006,0,0.012,0,0.018,0c0.027,0,0.054,0,0.082,0c29.569,0,57.367-11.514,78.278-32.424
			c1.216-1.216,2.421-2.485,3.593-3.77L469.576,259.09C490.484,238.18,502,210.379,502,180.809z M123.795,322.174l5.557-5.665
			c3.867-3.943,3.807-10.274-0.136-14.142c-3.945-3.868-10.275-3.807-14.142,0.136l-5.423,5.528l-63.085-63.085
			C29.435,227.814,20,205.037,20,180.809s9.435-47.006,26.567-64.138c17.132-17.133,39.909-26.567,64.138-26.567
			s47.006,9.435,64.138,26.567l62.015,62.015l-64.227,64.227c-26.421,26.42-36.798,62.925-30.84,97.26l-0.009-0.012L123.795,322.174
			z M392.312,308.067L320.5,236.255c-3.906-3.904-10.236-3.904-14.143,0c-3.905,3.905-3.905,10.237,0,14.143l71.812,71.812
			l-59.464,59.464l-3.656,3.656c-2.139,2.139-4.366,4.158-6.672,6.053C292.231,404.65,272.17,411.875,251,411.896
			c-24.195-0.024-46.941-9.458-64.049-26.566l-3.483-3.483c-32.303-35.85-30.871-90.616,3.306-124.792l140.384-140.384
			c17.132-17.133,39.909-26.567,64.138-26.567s47.006,9.435,64.138,26.567C472.565,133.803,482,156.58,482,180.809
			s-9.435,47.006-26.567,64.138L392.312,308.067z"/>
		<path d="M284.813,200.568c-3.906-3.904-10.236-3.904-14.143,0c-3.905,3.905-3.905,10.237,0,14.143l11.711,11.711
			c1.953,1.952,4.512,2.929,7.071,2.929s5.118-0.977,7.071-2.929c3.905-3.905,3.905-10.237,0-14.143L284.813,200.568z"/>
	</g>
</g>
<g>
</g>
<g>
</g>
<g>
</g>
<g>
</g>
<g>
</g>
<g>
</g>
<g>
</g>
<g>
</g>
<g>
</g>
<g>
</g>
<g>
</g>
<g>
</g>
<g>
</g>
<g>
</g>
<g>
</g>
</svg>
